<mxfile host="app.diagrams.net" agent="Mozilla/5.0 (X11; Ubuntu; Linux x86_64; rv:130.0) Gecko/20100101 Firefox/130.0" version="24.7.17">
  <diagram name="Page-1" id="SOC_JhgpMIP0W3Wuf6ZP">
    <mxGraphModel dx="988" dy="588" grid="1" gridSize="10" guides="1" tooltips="1" connect="1" arrows="1" fold="1" page="1" pageScale="1" pageWidth="850" pageHeight="1100" math="0" shadow="0">
      <root>
        <mxCell id="0" />
        <mxCell id="1" parent="0" />
        <mxCell id="fyci8umvjsUywbSjWTYh-9" value="" style="rounded=0;whiteSpace=wrap;html=1;fillColor=#fff2cc;strokeColor=#d6b656;" parent="1" vertex="1">
          <mxGeometry x="40" y="40" width="160" height="120" as="geometry" />
        </mxCell>
        <mxCell id="fyci8umvjsUywbSjWTYh-6" value="" style="rounded=0;whiteSpace=wrap;html=1;fillColor=#f5f5f5;strokeColor=#666666;fontColor=#333333;" parent="1" vertex="1">
          <mxGeometry x="320" y="40" width="160" height="200" as="geometry" />
        </mxCell>
        <mxCell id="fyci8umvjsUywbSjWTYh-7" value="" style="rounded=0;whiteSpace=wrap;html=1;fillColor=#fff2cc;strokeColor=#d6b656;" parent="1" vertex="1">
          <mxGeometry x="40" y="40" width="160" height="40" as="geometry" />
        </mxCell>
        <mxCell id="fyci8umvjsUywbSjWTYh-8" value="&lt;a href=&quot;https://github.com/numpy/numpy/blob/v2.0.0/numpy/_core/numeric.py#L782-L878&quot;&gt;numeric.py&lt;/a&gt;" style="text;html=1;align=center;verticalAlign=middle;whiteSpace=wrap;rounded=0;" parent="1" vertex="1">
          <mxGeometry x="80" y="45" width="60" height="30" as="geometry" />
        </mxCell>
        <mxCell id="fyci8umvjsUywbSjWTYh-10" value="&lt;a href=&quot;https://github.com/numpy/numpy/blob/v2.0.0/numpy/_core/numeric.py#L782-L878&quot;&gt;convolve&lt;/a&gt;" style="text;html=1;align=center;verticalAlign=middle;whiteSpace=wrap;rounded=0;" parent="1" vertex="1">
          <mxGeometry x="80" y="100" width="60" height="30" as="geometry" />
        </mxCell>
        <mxCell id="fyci8umvjsUywbSjWTYh-11" value="" style="rounded=0;whiteSpace=wrap;html=1;fillColor=#f5f5f5;strokeColor=#666666;fontColor=#333333;" parent="1" vertex="1">
          <mxGeometry x="320" y="40" width="160" height="40" as="geometry" />
        </mxCell>
        <mxCell id="fyci8umvjsUywbSjWTYh-12" value="&lt;a href=&quot;https://github.com/numpy/numpy/blob/v2.0.0/numpy/_core/src/multiarray/multiarraymodule.c&quot;&gt;multiarraymodule.c&lt;/a&gt;" style="text;html=1;align=center;verticalAlign=middle;whiteSpace=wrap;rounded=0;" parent="1" vertex="1">
          <mxGeometry x="342.5" y="45" width="115" height="30" as="geometry" />
        </mxCell>
        <mxCell id="fyci8umvjsUywbSjWTYh-13" value="&lt;a href=&quot;https://github.com/numpy/numpy/blob/v2.0.0/numpy/_core/src/multiarray/multiarraymodule.c#L1370&quot;&gt;PyArray_Correlate&lt;/a&gt;" style="text;html=1;align=center;verticalAlign=middle;whiteSpace=wrap;rounded=0;" parent="1" vertex="1">
          <mxGeometry x="332.5" y="100" width="125" height="30" as="geometry" />
        </mxCell>
        <mxCell id="fyci8umvjsUywbSjWTYh-14" value="&lt;a href=&quot;https://github.com/numpy/numpy/blob/v2.0.0/numpy/_core/src/multiarray/multiarraymodule.c#L1125&quot;&gt;_pyarray_correlate&lt;/a&gt;" style="text;html=1;align=center;verticalAlign=middle;whiteSpace=wrap;rounded=0;" parent="1" vertex="1">
          <mxGeometry x="332.5" y="190" width="125" height="30" as="geometry" />
        </mxCell>
        <mxCell id="CoBrZjk-6QdLZ4zpBraD-1" value="" style="endArrow=classic;html=1;rounded=0;entryX=0;entryY=0.5;entryDx=0;entryDy=0;exitX=1;exitY=0.5;exitDx=0;exitDy=0;" edge="1" parent="1" source="fyci8umvjsUywbSjWTYh-10" target="fyci8umvjsUywbSjWTYh-13">
          <mxGeometry width="50" height="50" relative="1" as="geometry">
            <mxPoint x="150" y="110" as="sourcePoint" />
            <mxPoint x="200" y="60" as="targetPoint" />
          </mxGeometry>
        </mxCell>
        <mxCell id="CoBrZjk-6QdLZ4zpBraD-2" value="" style="endArrow=classic;html=1;rounded=0;exitX=0.5;exitY=1;exitDx=0;exitDy=0;entryX=0.5;entryY=0;entryDx=0;entryDy=0;" edge="1" parent="1" source="fyci8umvjsUywbSjWTYh-13" target="fyci8umvjsUywbSjWTYh-14">
          <mxGeometry width="50" height="50" relative="1" as="geometry">
            <mxPoint x="150" y="320" as="sourcePoint" />
            <mxPoint x="200" y="270" as="targetPoint" />
          </mxGeometry>
        </mxCell>
        <mxCell id="CoBrZjk-6QdLZ4zpBraD-9" value="Untitled Layer" parent="0" />
        <mxCell id="CoBrZjk-6QdLZ4zpBraD-12" value="" style="rounded=0;whiteSpace=wrap;html=1;strokeColor=none;" vertex="1" parent="CoBrZjk-6QdLZ4zpBraD-9">
          <mxGeometry x="220" y="100" width="70" height="30" as="geometry" />
        </mxCell>
        <mxCell id="CoBrZjk-6QdLZ4zpBraD-13" value="calls" style="text;html=1;align=center;verticalAlign=middle;whiteSpace=wrap;rounded=0;" vertex="1" parent="CoBrZjk-6QdLZ4zpBraD-9">
          <mxGeometry x="230" y="105" width="50" height="20" as="geometry" />
        </mxCell>
        <mxCell id="CoBrZjk-6QdLZ4zpBraD-14" value="" style="rounded=0;whiteSpace=wrap;html=1;fillColor=#f5f5f5;fontColor=#333333;strokeColor=none;" vertex="1" parent="CoBrZjk-6QdLZ4zpBraD-9">
          <mxGeometry x="360" y="140" width="70" height="30" as="geometry" />
        </mxCell>
        <mxCell id="CoBrZjk-6QdLZ4zpBraD-15" value="calls" style="text;html=1;align=center;verticalAlign=middle;whiteSpace=wrap;rounded=0;" vertex="1" parent="CoBrZjk-6QdLZ4zpBraD-9">
          <mxGeometry x="370" y="145" width="50" height="20" as="geometry" />
        </mxCell>
      </root>
    </mxGraphModel>
  </diagram>
</mxfile>
